<svg xmlns="http://www.w3.org/2000/svg" width="24" height="24" viewBox="0 0 24 24" fill="#000000"><path d="M12,5.74c.74,0,1.34-.68,1.34-1.42s-.6-1.33-1.34-1.33-1.34.59-1.34,1.33.6,1.42,1.34,1.42ZM18.56,5.22s-2.21,1.01-6.56,1.01-6.7-1.01-6.7-1.01c-.14-.06-.29.01-.35.15-.06.14.01.3.15.35,0,0,1.5.76,3.37,1.33,1.01.41,1.66,1.67,1.66,2.73.03,2,.63,8.2.63,8.2v-.04c0,.2.16.36.35.36s.36-.16.36-.36c0,0,.09-4.51.22-6.04h0c0-.32.62-.32.62,0h0c.13,1.53.22,6.04.22,6.04,0,.2.16.36.36.36s.36-.16.36-.36v.04s.6-6.2.62-8.2c0-1.06.65-2.32,1.66-2.73,1.87-.57,3.23-1.33,3.23-1.33.14-.06.2-.21.15-.35-.06-.14-.21-.21-.35-.15ZM17.33,19.98c-.1-.23-2.45-.42-5.34-.42s-5.24.19-5.34.42c0,0,0,0,0,0,0,0,0,0,0,0,0,.17,1.18.31,2.91.38.33.09.63.2.84.28.21.09.9.34,1.6.34s1.39-.25,1.6-.34c.21-.09.51-.19.84-.28,1.72-.07,2.91-.22,2.91-.38,0,0,0,0,0,0,0,0,0,0,0,0Z"/></svg>