<?xml version="1.0" encoding="UTF-8"?>
<svg id="logo_large" data-name="logo large" xmlns="http://www.w3.org/2000/svg" viewBox="0 0 64 48">
  <path id="logo_type" data-name="logo type" d="M40.42,40c-.07,0-.16-.01-.27-.02-.11,0-.22,0-.34,0s-.23,0-.33,0c-.1,0-.18,0-.23,0,0,0-.03,0-.07.02-.04.01-.05.05-.05.1v.87c.05,0,.13,0,.24,0,.11,0,.22,0,.35,0,.13,0,.24,0,.35,0h.23c.12,0,.22-.04.31-.11.09-.07.13-.21.13-.41,0-.14-.02-.25-.08-.33-.05-.08-.13-.13-.24-.14ZM43.86,40.27s-.07-.05-.13-.05c-.07,0-.12.02-.14.05-.02.04-.04.08-.06.12l-.36,1.03h1.12l-.37-1.03s-.03-.08-.05-.12ZM6.37,42.2c.13.11.3.18.52.23.22.04.48.07.79.07.16,0,.31,0,.46-.02.15-.01.3-.03.44-.06.13-.02.22-.05.25-.09.04-.04.06-.09.06-.14v-.15c-.1.03-.21.06-.35.09-.14.03-.28.05-.42.06-.14.01-.27.02-.39.02-.32,0-.57-.04-.75-.11-.18-.07-.31-.2-.38-.37-.07-.18-.11-.42-.11-.74s.04-.56.11-.74c.08-.17.2-.3.38-.37.18-.07.41-.1.71-.1.12,0,.25,0,.41.02.15.01.3.03.44.06.14.03.26.06.34.1v-.16c0-.06-.02-.11-.05-.15-.04-.04-.12-.06-.25-.09-.15-.03-.3-.04-.45-.05-.15-.01-.3-.02-.45-.02-.31,0-.56.02-.78.06-.21.04-.39.12-.52.23-.14.11-.23.26-.3.46-.06.2-.09.44-.09.74s.03.56.09.76c.06.2.15.35.28.45ZM9.66,41.97c.04.1.11.19.21.27.1.08.23.13.41.17.18.04.4.06.68.06.35,0,.62-.03.82-.1.19-.06.33-.15.42-.27.09-.11.14-.25.16-.4s.03-.32.03-.51v-1.42c0-.07,0-.12,0-.16,0-.04-.02-.06-.05-.08-.03-.01-.08-.02-.14-.02h-.29v1.93c0,.26-.07.44-.22.56-.15.11-.38.17-.71.17-.21,0-.38-.02-.52-.06-.13-.04-.23-.12-.29-.22-.06-.1-.09-.25-.09-.44v-1.93h-.3c-.06,0-.1,0-.13.02-.03.01-.05.04-.05.08,0,.04,0,.09,0,.16v1.46c0,.14,0,.27.02.39.01.12.04.24.08.34ZM13.65,41.26c.24,0,.46,0,.66,0h.86c.14,0,.24.02.3.07.06.05.09.14.09.27v.67c0,.08.02.13.05.15.03.02.08.03.14.03h.34s-.01-.02-.02-.05c0-.03-.01-.06-.01-.1v-.72c0-.1-.02-.2-.05-.3-.03-.1-.13-.16-.29-.19h-.11s.06-.02.09-.02c.03,0,.05-.02.06-.03.11-.05.19-.14.24-.25.05-.11.08-.27.08-.46,0-.25-.05-.43-.15-.56-.1-.13-.26-.2-.48-.22-.06,0-.13,0-.23-.01-.1,0-.21,0-.33,0h-.39c-.13,0-.26,0-.39,0s-.24,0-.35,0-.19,0-.25,0c-.12,0-.21.03-.26.08s-.08.13-.08.25v2.59h.49v-1.19ZM13.65,39.96c0-.07.02-.12.06-.13.04-.01.07-.02.08-.02.06,0,.15,0,.27,0,.12,0,.25,0,.39,0s.28,0,.41,0c.13,0,.24,0,.33.02.14.02.23.07.3.17.06.1.09.22.09.38,0,.24-.05.4-.16.49-.11.09-.23.13-.37.13h-.7c-.15,0-.29,0-.42,0-.13,0-.22,0-.28,0v-1.02ZM17.29,41.26c.24,0,.46,0,.66,0h.86c.14,0,.24.02.3.07.06.05.09.14.09.27v.67c0,.08.02.13.05.15.03.02.08.03.14.03h.34s-.01-.02-.02-.05c0-.03-.01-.06-.01-.1v-.72c0-.1-.02-.2-.05-.3-.03-.1-.13-.16-.29-.19h-.11s.06-.02.09-.02c.03,0,.05-.02.06-.03.11-.05.19-.14.24-.25.05-.11.08-.27.08-.46,0-.25-.05-.43-.15-.56-.1-.13-.26-.2-.48-.22-.06,0-.13,0-.23-.01-.1,0-.21,0-.33,0h-.39c-.13,0-.26,0-.39,0s-.24,0-.35,0-.19,0-.25,0c-.12,0-.21.03-.26.08s-.08.13-.08.25v2.59h.49v-1.19ZM17.29,39.96c0-.07.02-.12.06-.13.04-.01.07-.02.08-.02.06,0,.15,0,.27,0,.12,0,.25,0,.39,0s.28,0,.41,0c.13,0,.24,0,.33.02.14.02.23.07.3.17.06.1.09.22.09.38,0,.24-.05.4-.16.49-.11.09-.23.13-.37.13h-.7c-.15,0-.29,0-.42,0-.13,0-.22,0-.28,0v-1.02ZM23.21,42.18h-2.21v-1.11h2.02v-.28h-2.02v-.97h2.21v-.28h-2.52c-.07,0-.12.01-.14.04-.02.03-.03.08-.03.16v2.72h2.69v-.28ZM24.2,39.99v.03s1.92,2.44,1.92,2.44h.39c.09,0,.15-.01.17-.04s.04-.09.04-.2v-2.55s0-.06,0-.09c0-.03,0-.04.01-.05h-.38v2.43h-.02s-1.89-2.43-1.89-2.43h-.43c-.09,0-.15.01-.17.04-.02.03-.03.1-.03.22v2.66h.36v-2.47ZM28.32,42.46h.31c.08,0,.12-.02.14-.04.02-.03.03-.08.03-.17v-2.43h1.2v-.29h-2.89v.29h1.21v2.64ZM59.4,38H4.6c-.33,0-.6.27-.6.6v4.8c0,.33.27.6.6.6h54.8s0,0,0,0h0s0,0,0,0c.16,0,.31-.07.42-.17,0,0,.01-.02.02-.03.04-.05.08-.1.11-.16.03-.07.05-.15.05-.23h0v-4.8c0-.33-.27-.6-.6-.6ZM29.94,43.75H4.6c-.19,0-.35-.16-.35-.35v-4.8c0-.19.16-.35.35-.35h28.45l-3.12,5.5ZM37.5,41.37c0,.21-.02.38-.08.53-.05.14-.14.26-.27.35-.13.09-.3.15-.53.19-.23.04-.51.06-.86.06-.32,0-.6-.02-.82-.06-.22-.04-.41-.12-.55-.23-.14-.11-.24-.27-.31-.46-.06-.19-.1-.44-.1-.74,0-.33.04-.59.13-.79.09-.2.21-.35.36-.46.16-.1.35-.17.57-.21.22-.04.47-.05.75-.05s.52,0,.73.02c.22.01.39.03.51.05.1.02.18.04.23.08.05.04.08.08.09.13.01.05.02.09.02.14v.21s-.08-.06-.18-.08c-.09-.02-.2-.04-.32-.05-.12-.01-.24-.02-.37-.03-.13,0-.24-.01-.35-.02-.11,0-.19,0-.25,0-.26,0-.47.03-.63.09-.16.06-.27.16-.33.32-.07.15-.1.37-.1.66,0,.27.03.48.09.63.06.15.16.26.3.32.14.06.32.09.55.09.21,0,.38-.02.5-.06.12-.04.21-.11.27-.2.05-.1.08-.23.09-.4v-.19h-1.13c0-.12,0-.21.02-.27.01-.06.05-.11.11-.14s.15-.04.27-.04h1.55v.63ZM41.03,42.46c-.09,0-.17-.02-.22-.04-.05-.03-.08-.1-.08-.2v-.5c0-.13-.03-.22-.09-.26-.06-.04-.16-.06-.3-.06h-.21c-.19,0-.36,0-.52,0-.15,0-.32,0-.49,0v1.06h-.85v-2.56c0-.12.03-.22.08-.28.05-.06.16-.09.31-.09.06,0,.16,0,.28,0,.12,0,.26,0,.41,0s.31,0,.47,0c.16,0,.32,0,.47,0,.15,0,.28,0,.39,0,.11,0,.2,0,.25,0,.22.02.39.09.5.21.11.12.17.31.17.56,0,.22-.02.39-.06.5-.04.11-.11.2-.2.25-.02.02-.05.03-.1.04-.04.01-.09.02-.14.02v.02h.16c.16.03.26.09.29.19.03.1.05.19.05.3v.62c0,.06,0,.11.02.15.01.03.02.05.03.06h-.62ZM44.72,42.46l-.27-.71h-1.42l-.26.71h-.66l.96-2.46c.06-.16.15-.28.26-.37.11-.09.3-.13.55-.13.21,0,.38.04.5.12.12.08.22.21.29.38l.97,2.46h-.92ZM47.64,42.46h-.58c-.18,0-.32-.04-.41-.11-.09-.07-.17-.19-.24-.36l-.96-2.46h.93l.7,2c.02.08.05.13.09.16.04.03.08.04.12.04h.07l.8-2.2h.64l-1.16,2.93ZM50.32,42.46h-.85v-2.64c0-.06,0-.12.01-.16,0-.04.03-.07.07-.1.04-.02.11-.03.2-.03h.56v2.93ZM54.22,39.99h-1.22v2.17c0,.12-.02.2-.05.24-.03.04-.11.06-.24.06h-.57v-2.47h-1.22v-.46h3.3v.46ZM57.84,39.71l-1.16,1.57v.85c0,.09,0,.16-.03.2-.02.05-.06.08-.11.1-.06.02-.13.03-.24.03h-.47v-1.18l-1.19-1.59-.13-.16h1.17l.78,1.18.76-1.18h.77l-.16.18Z"/>
  <path d="M32.1,10.12c1.11,0,2-1.02,2-2.12s-.9-1.99-2-1.99-2,.89-2,1.99.9,2.12,2,2.12ZM41.95,9.34s-3.32,1.51-9.85,1.51-10.05-1.51-10.05-1.51c-.21-.08-.44.02-.52.22-.08.21.02.44.22.53,0,0,2.25,1.14,5.05,1.99,1.51.61,2.49,2.5,2.49,4.1.04,3,.94,12.3.94,12.3v-.06c0,.3.24.54.53.54s.53-.24.53-.54c0,0,.14-6.77.34-9.06h0c.15.04.3.07.46.07s.32-.02.46-.07h0c.2,2.3.34,9.06.34,9.06,0,.3.24.54.53.54s.53-.24.53-.54v.06s.89-9.3.94-12.3c0-1.6.98-3.48,2.49-4.1,2.8-.85,4.85-1.99,4.85-1.99.21-.08.3-.32.22-.53-.08-.21-.32-.31-.52-.22ZM40.11,31.47c-.15-.35-3.67-.63-8-.63s-7.86.28-8,.63c0,0,0,0,0,.01,0,0,0,0,0,.01,0,.25,1.77.47,4.36.58.5.13.94.29,1.26.43.31.14,1.36.51,2.4.51s2.09-.37,2.4-.51c.32-.13.76-.29,1.26-.43,2.59-.11,4.36-.33,4.36-.58,0,0,0,0,0-.01,0,0,0,0,0-.01Z"/>
</svg>